<?xml version="1.0" standalone="no"?>
<!DOCTYPE svg PUBLIC "-//W3C//DTD SVG 20010904//EN"
 "http://www.w3.org/TR/2001/REC-SVG-20010904/DTD/svg10.dtd">
<svg version="1.0" xmlns="http://www.w3.org/2000/svg"
 width="500.000000pt" height="500.000000pt" viewBox="0 0 500.000000 500.000000"
 preserveAspectRatio="xMidYMid meet">
<metadata>
Created by potrace 1.14, written by Peter Selinger 2001-2017
</metadata>
<g transform="translate(0.000000,500.000000) scale(0.100000,-0.100000)"
fill="#000000" stroke="none">
<path d="M2189 4856 c-2 -2 -41 -7 -86 -10 -46 -4 -91 -9 -102 -11 -10 -2 -36
-6 -57 -9 -51 -8 -168 -33 -219 -47 -22 -6 -51 -13 -65 -16 -14 -4 -74 -24
-135 -45 -60 -22 -117 -41 -125 -43 -63 -14 -357 -176 -458 -252 -17 -13 -37
-21 -42 -18 -6 3 -10 -1 -10 -9 0 -8 -9 -20 -19 -26 -11 -5 -26 -16 -33 -22
-7 -7 -41 -37 -75 -65 -172 -148 -353 -363 -460 -548 -71 -123 -103 -186 -103
-201 0 -8 -3 -14 -8 -14 -4 0 -12 -15 -18 -32 -7 -18 -26 -71 -43 -118 -31
-84 -75 -236 -86 -295 -3 -16 -7 -41 -10 -55 -23 -126 -27 -181 -30 -360 -2
-135 2 -237 11 -300 7 -52 16 -115 18 -140 6 -49 54 -244 81 -325 247 -737
850 -1341 1610 -1612 161 -57 388 -115 510 -129 22 -3 46 -7 53 -9 65 -23 655
-23 692 0 3 2 28 7 56 10 74 10 85 12 139 25 28 6 57 13 65 15 110 23 328 99
459 161 62 30 115 54 117 54 15 0 312 195 334 220 3 3 23 18 45 35 52 38 251
236 301 300 21 28 42 52 45 55 10 9 109 148 109 153 0 3 13 25 29 49 41 62
102 180 141 273 18 44 39 94 46 110 40 97 97 324 109 440 2 17 4 30 5 30 1 0
4 20 8 45 14 107 4 552 -13 580 -2 3 -6 24 -9 46 -3 21 -8 50 -11 64 -2 14 -7
34 -9 45 -2 11 -9 40 -16 65 -7 25 -14 52 -15 60 -7 33 -59 180 -93 265 -42
105 -128 272 -195 380 -66 107 -242 326 -344 430 -333 338 -766 588 -1243 716
-111 30 -283 61 -415 75 -58 7 -431 15 -436 10z"/>
</g>
</svg>
